<svg height="730" viewBox="0 0 756 730" width="756" xmlns="http://www.w3.org/2000/svg">
<defs>
<marker id="arr-filled" markerHeight="12" markerWidth="12" orient="auto" refX="10" refY="5">
<polygon fill="#181818" points="0 0, 10 5, 0 10"/>
</marker>
<marker id="arr-hollow" markerHeight="12" markerWidth="12" orient="auto" refX="10" refY="5">
<polygon fill="#ffffff" points="0 0, 10 5, 0 10" stroke="#181818" stroke-width="1"/>
</marker>
<marker id="arr-diamond-f" markerHeight="12" markerWidth="12" orient="auto" refX="10" refY="5">
<polygon fill="#181818" points="0 5, 5 0, 10 5, 5 10"/>
</marker>
<marker id="arr-diamond-h" markerHeight="12" markerWidth="12" orient="auto" refX="10" refY="5">
<polygon fill="#ffffff" points="0 5, 5 0, 10 5, 5 10" stroke="#181818" stroke-width="1"/>
</marker>
<marker id="arrowhead" markerHeight="10" markerWidth="10" orient="auto" refX="9" refY="5">
<polygon fill="#181818" points="0 0, 10 5, 0 10"/>
</marker>
<marker id="arrowhead-open" markerHeight="10" markerWidth="10" orient="auto" refX="9" refY="5">
<path d="M0,0 L10,5 L0,10" fill="none" stroke="#181818" stroke-width="1.5"/>
</marker>
</defs>
<style>
text{font-family:"Liberation Sans",Helvetica,Arial,sans-serif;font-size:13px;fill:#181818}.participant-box{fill:#dae8fc;stroke:#6c8ebf;stroke-width:1.5}.lifeline{stroke:#6c8ebf;stroke-width:1;stroke-dasharray:6,4}.activation{fill:#cce0ff;stroke:#6c8ebf;stroke-width:1}.arrow{stroke:#181818;stroke-width:1.5;fill:none}.arrow-dashed{stroke:#181818;stroke-width:1.5;fill:none;stroke-dasharray:6,3}.note-box{fill:#ffffc0;stroke:#bbbb00;stroke-width:1}.divider-line{stroke:#888888;stroke-width:1.5;stroke-dasharray:8,3}.divider-label{font-weight:bold}.title{font-size:15px;font-weight:bold}.class-line{stroke:#181818;stroke-width:1.5;fill:none}.class-line-dashed{stroke:#181818;stroke-width:1.5;fill:none;stroke-dasharray:6,3}.bg{fill:#ffffff}@media (prefers-color-scheme:dark){text{fill:#e8e8e8}.bg{fill:#1e1e1e}.arrow,.class-line{stroke:#e8e8e8}.arrow-dashed,.class-line-dashed{stroke:#e8e8e8}.divider-line{stroke:#aaaaaa}}
</style>
<rect class="bg" fill="#ffffff" height="100%" width="100%"/>
<text class="title" text-anchor="middle" x="378" y="30">
Web Application Components
</text>
<g>
<path class="class-line" d="M562,578 L562,498" marker-end="url(#arrowhead)"/>
<text font-size="11" text-anchor="end" x="554" y="542">
HTTPS
</text>
</g>
<g>
<path class="class-line" d="M562,456 L562,405.5 L194,405.5 L194,355 L194,254" marker-end="url(#arrowhead)"/>
<text font-size="11" text-anchor="middle" x="327.5" y="424.5">
verify token
</text>
</g>
<g>
<path class="class-line" d="M562,456 L562,376" marker-end="url(#arrowhead)"/>
<text font-size="11" text-anchor="end" x="554" y="420">
/orders
</text>
</g>
<g>
<path class="class-line" d="M562,334 L562,254" marker-end="url(#arrowhead)"/>
<text font-size="11" text-anchor="end" x="554" y="298">
reserve
</text>
</g>
<g>
<path class="class-line" d="M562,334 L562,294 L378,294 L378,254" marker-end="url(#arrowhead)"/>
<text font-size="11" text-anchor="middle" x="470" y="313">
charge
</text>
</g>
<g>
<path class="class-line" d="M562,334 L562,283.5 L746,283.5 L746,233 L746,182.5 L378,182.5 L378,132" marker-end="url(#arrowhead)"/>
<text font-size="11" text-anchor="middle" x="704.5" y="201.5">
order.created
</text>
</g>
<g>
<path class="class-line" d="M378,212 L378,169 L194,169 L194,132" marker-end="url(#arrowhead)"/>
<text font-size="11" text-anchor="middle" x="289" y="188">
write ledger
</text>
</g>
<g>
<path class="class-line" d="M562,212 L562,175 L194,175 L194,132" marker-end="url(#arrowhead)"/>
<text font-size="11" text-anchor="middle" x="375" y="194">
stock levels
</text>
</g>
<g>
<path class="class-line" d="M194,212 L194,132" marker-end="url(#arrowhead)"/>
<text font-size="11" text-anchor="end" x="186" y="176">
sessions
</text>
</g>
<g>
<rect fill="none" height="42" rx="3" stroke="#6c8ebf" stroke-width="1.5" width="144" x="490" y="578"/>
<text fill="#555" font-size="10" text-anchor="middle" x="562" y="590">
«component»
</text>
<text font-weight="bold" text-anchor="middle" x="562" y="604">
Browser
</text>
<rect fill="none" height="8" stroke="#6c8ebf" stroke-width="1.5" width="12" x="484" y="586"/>
<rect fill="none" height="8" stroke="#6c8ebf" stroke-width="1.5" width="12" x="484" y="598"/>
</g>
<g>
<rect fill="none" height="42" rx="3" stroke="#6c8ebf" stroke-width="1.5" width="144" x="490" y="456"/>
<text fill="#555" font-size="10" text-anchor="middle" x="562" y="468">
«component»
</text>
<text font-weight="bold" text-anchor="middle" x="562" y="482">
API Gateway
</text>
<rect fill="none" height="8" stroke="#6c8ebf" stroke-width="1.5" width="12" x="484" y="464"/>
<rect fill="none" height="8" stroke="#6c8ebf" stroke-width="1.5" width="12" x="484" y="476"/>
</g>
<g>
<rect fill="none" height="42" rx="3" stroke="#6c8ebf" stroke-width="1.5" width="144" x="122" y="212"/>
<text fill="#555" font-size="10" text-anchor="middle" x="194" y="224">
«component»
</text>
<text font-weight="bold" text-anchor="middle" x="194" y="238">
AuthService
</text>
<rect fill="none" height="8" stroke="#6c8ebf" stroke-width="1.5" width="12" x="116" y="220"/>
<rect fill="none" height="8" stroke="#6c8ebf" stroke-width="1.5" width="12" x="116" y="232"/>
</g>
<g>
<rect fill="none" height="42" rx="3" stroke="#6c8ebf" stroke-width="1.5" width="144" x="490" y="334"/>
<text fill="#555" font-size="10" text-anchor="middle" x="562" y="346">
«component»
</text>
<text font-weight="bold" text-anchor="middle" x="562" y="360">
OrderService
</text>
<rect fill="none" height="8" stroke="#6c8ebf" stroke-width="1.5" width="12" x="484" y="342"/>
<rect fill="none" height="8" stroke="#6c8ebf" stroke-width="1.5" width="12" x="484" y="354"/>
</g>
<g>
<rect fill="none" height="42" rx="3" stroke="#6c8ebf" stroke-width="1.5" width="144" x="306" y="212"/>
<text fill="#555" font-size="10" text-anchor="middle" x="378" y="224">
«component»
</text>
<text font-weight="bold" text-anchor="middle" x="378" y="238">
PaymentService
</text>
<rect fill="none" height="8" stroke="#6c8ebf" stroke-width="1.5" width="12" x="300" y="220"/>
<rect fill="none" height="8" stroke="#6c8ebf" stroke-width="1.5" width="12" x="300" y="232"/>
</g>
<g>
<rect fill="none" height="42" rx="3" stroke="#6c8ebf" stroke-width="1.5" width="144" x="490" y="212"/>
<text fill="#555" font-size="10" text-anchor="middle" x="562" y="224">
«component»
</text>
<text font-weight="bold" text-anchor="middle" x="562" y="238">
InventoryService
</text>
<rect fill="none" height="8" stroke="#6c8ebf" stroke-width="1.5" width="12" x="484" y="220"/>
<rect fill="none" height="8" stroke="#6c8ebf" stroke-width="1.5" width="12" x="484" y="232"/>
</g>
<g>
<rect fill="none" height="42" rx="3" stroke="#6c8ebf" stroke-width="1.5" width="144" x="122" y="90"/>
<text fill="#555" font-size="10" text-anchor="middle" x="194" y="102">
«component»
</text>
<text font-weight="bold" text-anchor="middle" x="194" y="116">
Database
</text>
<rect fill="none" height="8" stroke="#6c8ebf" stroke-width="1.5" width="12" x="116" y="98"/>
<rect fill="none" height="8" stroke="#6c8ebf" stroke-width="1.5" width="12" x="116" y="110"/>
</g>
<g>
<rect fill="none" height="42" rx="3" stroke="#6c8ebf" stroke-width="1.5" width="144" x="306" y="90"/>
<text fill="#555" font-size="10" text-anchor="middle" x="378" y="102">
«component»
</text>
<text font-weight="bold" text-anchor="middle" x="378" y="116">
MessageBus
</text>
<rect fill="none" height="8" stroke="#6c8ebf" stroke-width="1.5" width="12" x="300" y="98"/>
<rect fill="none" height="8" stroke="#6c8ebf" stroke-width="1.5" width="12" x="300" y="110"/>
</g>
</svg>